<?xml version="1.0" standalone="no"?>
<!DOCTYPE svg PUBLIC "-//W3C//DTD SVG 20010904//EN"
 "http://www.w3.org/TR/2001/REC-SVG-20010904/DTD/svg10.dtd">
<svg version="1.0" xmlns="http://www.w3.org/2000/svg"
 width="29.000000pt" height="29.000000pt" viewBox="0 0 29.000000 29.000000"
 preserveAspectRatio="xMidYMid meet">
<metadata>
Created by potrace 1.10, written by Peter Selinger 2001-2011
</metadata>
<g transform="translate(0.000000,29.000000) scale(0.100000,-0.100000)"
fill="#000000" stroke="none">
<path d="M120 230 l0 -60 -60 0 c-57 0 -60 -1 -60 -25 0 -24 3 -25 60 -25 l60
0 0 -60 c0 -57 1 -60 25 -60 24 0 25 3 25 60 l0 60 60 0 c57 0 60 1 60 25 0
24 -3 25 -60 25 l-60 0 0 60 c0 57 -1 60 -25 60 -24 0 -25 -3 -25 -60z"/>
</g>
</svg>
