<?xml version="1.0" standalone="no"?>
<!DOCTYPE svg PUBLIC "-//W3C//DTD SVG 20010904//EN"
 "http://www.w3.org/TR/2001/REC-SVG-20010904/DTD/svg10.dtd">
<svg version="1.0" xmlns="http://www.w3.org/2000/svg"
 width="70.000000pt" height="70.000000pt" viewBox="0 0 70.000000 70.000000"
 preserveAspectRatio="xMidYMid meet">
<metadata>
Created by potrace 1.10, written by Peter Selinger 2001-2011
</metadata>
<g transform="translate(0.000000,70.000000) scale(0.100000,-0.100000)"
fill="#000000" stroke="none">
<path d="M253 685 c-102 -31 -176 -96 -222 -195 -22 -46 -26 -69 -26 -140 0
-76 4 -93 33 -152 38 -77 92 -130 171 -167 47 -22 70 -26 141 -26 99 0 168 26
239 90 48 44 98 141 107 207 l7 48 -107 0 c-94 0 -106 -2 -106 -17 0 -29 -37
-82 -72 -103 -117 -71 -259 71 -188 188 21 35 74 72 103 72 15 0 17 12 17 105
l0 105 -27 -1 c-16 0 -47 -6 -70 -14z"/>
</g>
</svg>
