<?xml version="1.0" standalone="no"?>
<!DOCTYPE svg PUBLIC "-//W3C//DTD SVG 20010904//EN"
 "http://www.w3.org/TR/2001/REC-SVG-20010904/DTD/svg10.dtd">
<svg version="1.0" xmlns="http://www.w3.org/2000/svg"
 width="70.000000pt" height="70.000000pt" viewBox="0 0 70.000000 70.000000"
 preserveAspectRatio="xMidYMid meet">
<metadata>
Created by potrace 1.10, written by Peter Selinger 2001-2011
</metadata>
<g transform="translate(0.000000,70.000000) scale(0.100000,-0.100000)"
fill="#000000" stroke="none">
<path d="M340 663 c0 -44 -66 -187 -102 -220 -29 -27 -121 -69 -170 -78 -49
-9 -48 -22 1 -30 53 -9 151 -57 179 -87 27 -30 92 -174 92 -205 0 -13 5 -23
10 -23 6 0 10 8 10 17 0 29 51 156 77 191 31 41 113 88 181 103 28 7 52 16 52
20 0 4 -18 10 -39 14 -62 10 -156 60 -186 98 -30 37 -71 130 -81 183 -6 35
-24 47 -24 17z"/>
</g>
</svg>
