<?xml version="1.0" standalone="no"?>
<!DOCTYPE svg PUBLIC "-//W3C//DTD SVG 20010904//EN"
 "http://www.w3.org/TR/2001/REC-SVG-20010904/DTD/svg10.dtd">
<svg version="1.0" xmlns="http://www.w3.org/2000/svg"
 width="108.000000pt" height="108.000000pt" viewBox="0 0 108.000000 108.000000"
 preserveAspectRatio="xMidYMid meet">
<metadata>
Created by potrace 1.10, written by Peter Selinger 2001-2011
</metadata>
<g transform="translate(0.000000,108.000000) scale(0.100000,-0.100000)"
fill="#000000" stroke="none">
<path d="M530 1038 c0 -44 -78 -250 -114 -301 -58 -84 -171 -147 -324 -178
-34 -7 -62 -16 -62 -19 0 -3 28 -12 62 -19 153 -31 266 -94 324 -178 36 -51
114 -257 114 -300 0 -13 5 -23 10 -23 6 0 10 10 10 23 0 40 75 241 110 295 55
83 179 153 328 183 34 7 62 15 62 19 0 3 -40 15 -88 26 -174 42 -273 110 -330
227 -32 68 -82 216 -82 248 0 10 -4 19 -10 19 -5 0 -10 -10 -10 -22z"/>
</g>
</svg>
