<?xml version="1.0" standalone="no"?>
<!DOCTYPE svg PUBLIC "-//W3C//DTD SVG 20010904//EN"
 "http://www.w3.org/TR/2001/REC-SVG-20010904/DTD/svg10.dtd">
<svg version="1.0" xmlns="http://www.w3.org/2000/svg"
 width="54.000000pt" height="54.000000pt" viewBox="0 0 54.000000 54.000000"
 preserveAspectRatio="xMidYMid meet">
<metadata>
Created by potrace 1.10, written by Peter Selinger 2001-2011
</metadata>
<g transform="translate(0.000000,54.000000) scale(0.100000,-0.100000)"
fill="#000000" stroke="none">
<path d="M 26.5 2.101562 C 26.5 4.300781 22.601562 14.601562 20.800781 17.148438 C 17.898438 21.351562 12.25 24.5 4.601562 26.050781 C 2.898438 26.398438 1.5 26.851562 1.5 27 C 1.5 27.148438 2.898438 27.601562 4.601562 27.949219 C 12.25 29.5 17.898438 32.648438 20.800781 36.851562 C 22.601562 39.398438 26.5 49.699219 26.5 51.851562 C 26.5 52.5 26.75 53 27 53 C 27.300781 53 27.5 52.5 27.5 51.851562 C 27.5 49.851562 31.25 39.800781 33 37.101562 C 35.75 32.949219 41.949219 29.449219 49.398438 27.949219 C 51.101562 27.601562 52.5 27.199219 52.5 27 C 52.5 26.851562 50.5 26.25 48.101562 25.699219 C 39.398438 23.601562 34.449219 20.199219 31.601562 14.351562 C 30 10.949219 27.5 3.550781 27.5 1.949219 C 27.5 1.449219 27.300781 1 27 1 C 26.75 1 26.5 1.5 26.5 2.101562 Z M 26.5 2.101562 "/>
</g>
</svg>
